# xmcd CD database file
#
# Track frame offsets:
#	150
#	13160
#	24330
#	38838
#	49908
#
# Disc length: 878 seconds
#
# Revision: 0
# Processed by: cddbd v1.5PL3 Copyright (c) Steve Scherf et al.
# Submitted via: CDex 1.50beta9
#
DISCID=36036c05
DTITLE=PENPALS - be adams e.p.
DYEAR=1900
DGENRE=New Age
TTITLE0=I wanna know
TTITLE1=I can't hold you back
TTITLE2=One Night Lover Hair
TTITLE3=depending on me 
TTITLE4=YOU LOVE US
EXTD=
EXTT0=
EXTT1=
EXTT2=
EXTT3=
EXTT4=
PLAYORDER=
